<?xml version="1.0" standalone="no"?>
<!DOCTYPE svg PUBLIC "-//W3C//DTD SVG 20010904//EN"
 "http://www.w3.org/TR/2001/REC-SVG-20010904/DTD/svg10.dtd">
<svg version="1.0" xmlns="http://www.w3.org/2000/svg"
 width="512.000000pt" height="512.000000pt" viewBox="0 0 512.000000 512.000000"
 preserveAspectRatio="xMidYMid meet">

<g transform="translate(0.000000,512.000000) scale(0.100000,-0.100000)"
fill="#000000" stroke="none">
<path d="M3410 4999 c-34 -15 -171 -146 -567 -541 l-521 -521 -4 324 c-4 305
-5 327 -26 379 -42 105 -124 185 -227 221 -53 19 -86 19 -750 19 -667 0 -697
-1 -751 -20 -102 -35 -184 -116 -228 -223 l-21 -52 -3 -1524 c-1 -932 1 -1552
7 -1594 18 -130 95 -238 210 -295 55 -26 61 -27 258 -30 l201 -3 -33 -57 c-66
-112 -80 -170 -80 -332 1 -131 3 -151 27 -212 38 -101 85 -175 158 -248 121
-121 253 -179 426 -187 127 -7 227 14 330 67 63 33 75 36 86 23 6 -8 29 -23
49 -34 37 -18 75 -19 1364 -19 1300 0 1327 0 1364 20 48 24 95 79 110 129 15
52 16 1329 0 1385 -6 21 -29 58 -51 82 -71 77 -36 74 -937 74 l-796 0 886 888
c940 941 912 909 912 1002 0 91 7 82 -597 689 -387 388 -584 579 -611 592 -53
24 -128 24 -185 -2z m134 -104 c17 -8 91 -75 165 -149 l133 -133 -17 -33 c-27
-53 -116 -135 -181 -168 -175 -88 -363 -62 -518 70 l-48 41 179 180 c156 157
214 205 246 207 5 0 23 -7 41 -15z m-2642 -215 c15 -47 36 -91 45 -97 13 -10
103 -13 370 -13 410 0 373 -11 418 119 l29 83 121 -4 c140 -4 192 -23 250 -91
69 -80 65 3 65 -1493 l0 -1352 -102 -4 c-137 -5 -195 -35 -241 -123 -18 -35
-21 -62 -25 -206 l-4 -167 -52 23 c-129 56 -303 67 -436 26 -88 -27 -115 -40
-194 -93 l-58 -40 -232 4 c-218 3 -234 4 -278 26 -27 13 -63 42 -82 64 -71 82
-66 -35 -66 1669 0 1657 -2 1575 50 1650 58 81 135 109 289 106 l104 -2 29
-85z m738 86 c0 -2 -7 -20 -15 -40 l-15 -36 -295 0 c-161 0 -296 3 -298 8 -3
4 -8 22 -12 40 l-7 32 321 0 c177 0 321 -2 321 -4z m2484 -435 l188 -188 -36
-22 c-55 -34 -153 -148 -186 -215 -104 -215 -72 -468 82 -641 l51 -57 -541
-541 -540 -540 -54 47 c-114 103 -236 150 -388 150 -134 0 -240 -36 -357 -120
l-23 -16 0 793 0 794 253 250 c138 138 291 288 339 335 l88 84 42 -41 c57 -55
148 -109 228 -134 85 -28 231 -30 315 -5 128 38 249 122 315 220 14 20 27 36
30 36 3 0 90 -85 194 -189z m561 -583 c14 -55 -4 -80 -188 -265 -100 -101
-184 -183 -188 -183 -12 0 -70 63 -96 104 -65 102 -86 258 -50 378 25 81 92
174 167 231 l64 49 142 -144 c86 -86 145 -154 149 -170z m-1870 -1553 c78 -21
144 -58 196 -111 l43 -44 -104 -105 -105 -105 -213 0 -213 0 -50 42 c-46 39
-49 44 -49 89 0 37 6 55 28 81 115 139 294 198 467 153z m1836 -514 c28 -29
29 -32 29 -130 l0 -101 -1365 0 -1365 0 0 93 c1 99 11 131 51 153 20 11 264
13 1322 14 l1299 0 29 -29z m29 -466 l0 -115 -1305 0 c-718 0 -1305 4 -1305 9
0 4 -27 38 -60 74 -53 57 -60 70 -60 106 l0 41 1365 0 1365 0 0 -115z m-3030
60 c342 -91 508 -464 345 -774 -144 -274 -503 -370 -760 -203 -154 99 -256
282 -255 456 1 240 180 465 413 522 71 17 191 17 257 -1z m3030 -627 c0 -361
0 -358 -57 -387 -16 -8 -380 -11 -1308 -11 -1227 0 -1305 1 -1333 25 -2 2 18
30 44 62 54 65 115 191 135 273 17 76 15 222 -5 296 -9 34 -16 65 -16 68 0 3
572 6 1270 6 l1270 0 0 -332z"/>
<path d="M1255 4041 c-81 -20 -146 -82 -166 -160 -10 -40 -18 -50 -62 -76 -83
-49 -170 -143 -210 -226 -47 -99 -61 -167 -55 -275 8 -138 57 -250 151 -345
94 -94 202 -144 344 -158 95 -10 128 -27 149 -78 12 -27 13 -42 4 -67 -32 -98
-150 -113 -206 -25 -75 119 -248 133 -338 27 -44 -51 -63 -125 -47 -184 24
-88 120 -195 224 -249 50 -26 55 -33 60 -68 15 -112 137 -194 253 -168 81 19
147 85 164 166 4 23 17 35 55 55 74 37 185 152 223 230 34 69 62 179 62 245 0
132 -63 278 -161 377 -99 99 -255 168 -381 168 -140 0 -174 170 -44 220 44 16
87 -3 136 -62 51 -59 106 -87 173 -88 122 0 207 84 207 208 0 49 -6 68 -36
118 -47 78 -102 134 -179 179 -57 33 -64 41 -74 81 -26 102 -147 179 -246 155z
m113 -146 c14 -17 22 -39 22 -63 0 -52 18 -74 92 -110 35 -17 81 -48 102 -69
47 -46 96 -120 96 -145 0 -38 -29 -77 -65 -87 -49 -13 -87 2 -121 47 -36 47
-50 59 -99 82 -104 50 -244 0 -295 -105 -44 -90 -21 -207 52 -271 44 -39 78
-50 188 -64 145 -17 277 -100 344 -215 83 -141 70 -336 -31 -469 -42 -55 -127
-118 -186 -137 -43 -14 -57 -33 -57 -79 0 -95 -93 -143 -160 -82 -25 22 -33
38 -39 84 -4 32 -10 60 -12 62 -2 1 -37 20 -77 41 -108 56 -192 147 -192 208
0 39 26 74 64 87 46 15 75 1 126 -61 54 -64 105 -88 185 -89 51 0 70 5 115 33
132 79 148 254 32 359 -45 41 -77 51 -199 67 -139 17 -241 80 -314 194 -76
118 -86 269 -25 402 34 74 121 164 193 200 84 41 93 51 93 102 0 54 12 78 48
98 37 21 92 12 120 -20z"/>
<path d="M1100 1653 c-40 -14 -53 -69 -22 -96 16 -15 48 -17 240 -17 209 0
223 1 242 20 32 32 25 66 -17 89 -22 11 -412 15 -443 4z"/>
<path d="M2940 3844 c-206 -44 -381 -213 -435 -420 -20 -75 -19 -210 1 -288
50 -194 208 -354 409 -411 79 -23 221 -23 300 -1 94 28 174 74 242 139 115
110 170 227 180 379 8 112 -8 192 -58 295 -113 236 -379 364 -639 307z m259
-123 c329 -102 434 -520 191 -762 -150 -150 -360 -179 -552 -77 -159 85 -261
292 -230 468 23 129 115 266 220 327 107 63 255 80 371 44z"/>
<path d="M2816 3524 c-18 -17 -22 -69 -6 -79 6 -4 7 -23 4 -45 -9 -58 3 -106
39 -147 59 -67 141 -82 212 -38 80 49 82 49 110 31 34 -22 34 -69 0 -92 -14
-9 -32 -14 -40 -10 -24 9 -65 -15 -71 -41 -4 -14 1 -34 11 -49 16 -25 21 -26
83 -22 37 3 77 0 89 -5 33 -15 73 15 73 53 0 16 -4 31 -9 35 -6 3 -6 17 1 36
24 69 -14 159 -83 198 -58 33 -123 28 -188 -13 -52 -33 -81 -36 -99 -12 -20
25 -20 46 -1 70 16 20 30 26 59 26 32 0 43 5 57 26 15 23 15 29 2 52 -18 32
-67 46 -116 33 -23 -7 -42 -7 -54 -1 -26 15 -55 12 -73 -6z"/>
<path d="M1486 1119 c-14 -11 -26 -29 -26 -40 0 -10 -4 -19 -10 -19 -22 0 -90
-74 -106 -115 -42 -112 37 -232 165 -251 53 -8 81 -34 81 -74 0 -70 -77 -92
-137 -40 -18 17 -42 30 -52 30 -25 0 -51 -32 -51 -63 0 -28 48 -83 85 -97 14
-5 25 -20 28 -39 13 -65 101 -65 114 -1 3 19 16 36 32 44 57 30 101 104 101
168 0 41 -30 106 -61 135 -29 27 -90 53 -122 53 -40 0 -77 36 -77 75 0 71 86
96 138 40 25 -27 70 -33 90 -13 7 7 12 26 12 44 0 26 -9 40 -42 68 -23 20 -47
36 -54 36 -6 0 -14 13 -17 28 -4 17 -16 33 -32 40 -32 15 -28 16 -59 -9z"/>
<path d="M3632 790 c-83 -34 -132 -111 -132 -207 0 -52 5 -68 33 -109 95 -142
305 -120 371 38 57 135 -48 289 -196 287 -29 0 -63 -4 -76 -9z m113 -114 c18
-8 38 -23 44 -34 14 -26 14 -77 1 -103 -16 -29 -67 -51 -100 -44 -38 8 -80 58
-80 94 0 43 50 97 93 100 4 1 23 -5 42 -13z"/>
<path d="M4242 783 c-45 -22 -92 -70 -108 -110 -22 -51 -18 -133 9 -184 61
-116 218 -146 317 -62 121 104 101 281 -42 354 -46 24 -131 25 -176 2z m129
-109 c43 -22 64 -74 46 -116 -19 -46 -43 -63 -88 -63 -104 0 -130 146 -34 186
30 12 43 11 76 -7z"/>
<path d="M2157 522 c-24 -26 -21 -68 5 -86 17 -12 50 -16 146 -16 127 0 154 6
172 40 11 21 -1 57 -24 72 -6 4 -72 8 -147 8 -119 0 -138 -2 -152 -18z"/>
<path d="M2664 532 c-23 -15 -35 -51 -24 -72 18 -34 45 -40 179 -40 118 0 133
2 151 20 27 27 26 65 -2 84 -18 13 -51 16 -158 16 -74 0 -140 -4 -146 -8z"/>
</g>
</svg>
